<svg width="40" height="40" viewBox="0 0 40 40" fill="none" xmlns="http://www.w3.org/2000/svg">
<path d="M40 20C40 31.0457 31.0457 40 20 40C8.95428 40 0 31.0457 0 20C0 8.95428 8.95428 0 20 0C31.0457 0 40 8.95428 40 20ZM36.129 20L36.1288 19.9773L34.0269 21.8112L28.9721 17.0935L30.299 10.2906L33.0654 10.5384C31.0582 7.77903 28.2264 5.6925 24.9437 4.63992L26.0446 7.21565L20 10.5645L13.9554 7.21573L15.0563 4.64C11.7796 5.69065 8.945 7.77468 6.9346 10.5385L9.7221 10.2906L11.0279 17.0935L5.97323 21.8112L3.87129 19.9773L3.87105 20C3.87105 23.469 4.95952 26.7703 6.97363 29.5154L7.59492 26.7818L14.4609 27.6243L17.3884 33.9006L14.9769 35.3349C18.219 36.3931 21.7745 36.3952 25.0231 35.3349L22.6116 33.9006L25.5391 27.6243L32.4051 26.7818L33.0264 29.5154C35.0406 26.7703 36.129 23.469 36.129 20ZM16.1208 25.6106L13.71 18.2467L20 13.6881L26.29 18.2467L23.9011 25.6106H16.1208Z" fill="#EEEEEE"/>
</svg>
