<svg width="99" height="10" xmlns="http://www.w3.org/2000/svg" version="1.1" xml:space="preserve">
 <g id="Layer_1">
  <title>Layer 1</title>
  <rect transform="rotate(43.7811 22.6207 5.19758)" fill="#ffff" x="20.12071" y="2.69758" width="5" height="5" id="svg_19" stroke="null"/>
  <rect fill="#ffff" x="685" y="468.8" width="11" height="11" id="svg_3" stroke="null" transform="rotate(43.7811 690.5 474.3)"/>
  <rect transform="rotate(43.7811 40.6207 5.19758)" fill="#ffff" x="38.12071" y="2.69758" width="5" height="5" id="svg_4" stroke="null"/>
  <rect transform="rotate(43.7811 76.6207 5.19758)" fill="#ffff" x="74.12071" y="2.69758" width="5" height="5" id="svg_5" stroke="null"/>
  <rect transform="rotate(43.7811 58.6207 5.19758)" fill="#ffff" x="56.12071" y="2.69758" width="5" height="5" id="svg_6" stroke="null"/>
  <rect transform="rotate(43.7811 112.681 5.23758)" stroke="null" fill="#ffff" x="110.12071" y="2.69758" width="5.12" height="5.08" id="svg_34"/>
  <rect transform="rotate(43.7811 130.68 5.23758)" stroke="null" fill="#ffff" x="65.93239" y="2.69758" width="5.12" height="5.08" id="svg_35"/>
  <rect transform="rotate(43.7811 94.6807 5.23758)" stroke="null" fill="#ffff" x="92.12071" y="2.69758" width="5.12" height="5.08" id="svg_36"/>
  <rect transform="rotate(43.7811 4.85101 5.23758)" stroke="null" fill="#ffff" x="2.29101" y="2.69758" width="5.12" height="5.08" id="svg_37"/>
 </g>

</svg>